<svg width="178" height="142" viewBox="0 0 178 142" fill="none" xmlns="http://www.w3.org/2000/svg">
<path d="M168.625 88.75H159.75V26.625C159.75 19.5636 156.945 12.7914 151.952 7.79828C146.959 2.80513 140.186 0 133.125 0H44.375C37.3136 0 30.5414 2.80513 25.5483 7.79828C20.5551 12.7914 17.75 19.5636 17.75 26.625V88.75H8.875C6.5212 88.75 4.26381 89.685 2.59943 91.3494C0.935042 93.0138 0 95.2712 0 97.625V115.375C0 122.436 2.80513 129.209 7.79828 134.202C12.7914 139.195 19.5636 142 26.625 142H150.875C157.936 142 164.709 139.195 169.702 134.202C174.695 129.209 177.5 122.436 177.5 115.375V97.625C177.5 95.2712 176.565 93.0138 174.901 91.3494C173.236 89.685 170.979 88.75 168.625 88.75ZM35.5 26.625C35.5 24.2712 36.435 22.0138 38.0994 20.3494C39.7638 18.685 42.0212 17.75 44.375 17.75H133.125C135.479 17.75 137.736 18.685 139.401 20.3494C141.065 22.0138 142 24.2712 142 26.625V88.75H35.5V26.625ZM159.75 115.375C159.75 117.729 158.815 119.986 157.151 121.651C155.486 123.315 153.229 124.25 150.875 124.25H26.625C24.2712 124.25 22.0138 123.315 20.3494 121.651C18.685 119.986 17.75 117.729 17.75 115.375V106.5H159.75V115.375Z" fill="white"/>
</svg>
