<svg width="44" height="44" viewBox="0 0 44 44" fill="none" xmlns="http://www.w3.org/2000/svg">
<path d="M38.8931 32.9862C38.6639 32.9999 38.4478 33.0973 38.2856 33.2599L32.7112 38.8343C32.599 38.9469 32.5172 39.0863 32.4736 39.2392C32.43 39.3921 32.426 39.5535 32.462 39.7084C32.498 39.8633 32.5728 40.0065 32.6794 40.1245C32.786 40.2425 32.9208 40.3316 33.0712 40.3832L41.5781 43.3156C41.7441 43.3722 41.9227 43.3809 42.0935 43.341C42.2643 43.3011 42.4205 43.2141 42.5443 43.0899C42.6682 42.9657 42.7547 42.8093 42.794 42.6383C42.8333 42.4674 42.8239 42.289 42.7669 42.1231L39.8344 33.6181C39.7683 33.4241 39.6405 33.2572 39.4705 33.1427C39.3005 33.0283 39.0977 32.9744 38.8931 32.9862ZM38.5519 35.643L40.3706 40.9174L35.1 39.0987L38.5519 35.643Z" fill="#D3D3D3"/>
<path d="M10.1813 4.23317C9.93804 4.23764 9.70608 4.33642 9.53438 4.50874L3.96 10.0774C3.87213 10.1646 3.80239 10.2683 3.75479 10.3825C3.7072 10.4968 3.68269 10.6193 3.68269 10.743C3.68269 10.8668 3.7072 10.9895 3.75479 11.1037C3.80239 11.218 3.87213 11.3217 3.96 11.4088L15.7556 23.2024C15.8412 23.2955 15.9446 23.3703 16.0598 23.4224C16.1749 23.4744 16.2994 23.5028 16.4258 23.5055C16.5521 23.5082 16.6777 23.4853 16.795 23.4382C16.9123 23.3911 17.0189 23.3208 17.1083 23.2315C17.1977 23.1422 17.2682 23.0356 17.3154 22.9184C17.3627 22.8012 17.3857 22.6758 17.3832 22.5494C17.3807 22.4231 17.3526 22.2985 17.3007 22.1832C17.2488 22.068 17.1742 21.9645 17.0813 21.8788L5.94938 10.7451L10.1963 6.49635L21.3 17.6001C21.3865 17.6896 21.4899 17.7608 21.6043 17.81C21.7187 17.8591 21.8417 17.8851 21.9662 17.8862C22.0907 17.8873 22.2141 17.8635 22.3293 17.8164C22.4446 17.7693 22.5492 17.6996 22.6372 17.6115C22.7253 17.5235 22.7949 17.4189 22.842 17.3037C22.8892 17.1885 22.9129 17.0649 22.9118 16.9405C22.9107 16.816 22.8849 16.693 22.8357 16.5786C22.7866 16.4642 22.7152 16.3609 22.6256 16.2744L10.86 4.50874C10.771 4.41993 10.6651 4.35001 10.5484 4.30298C10.4318 4.25595 10.307 4.23095 10.1813 4.23317ZM26.9063 20.9393C26.7189 20.9381 26.5355 20.9933 26.3797 21.0974C26.2239 21.2015 26.1029 21.3498 26.0322 21.5234C25.9616 21.6969 25.9446 21.8878 25.9834 22.0711C26.0222 22.2544 26.1151 22.4219 26.25 22.552L37.6219 33.9219L33.375 38.1706L22.0313 26.8288C21.9456 26.7359 21.842 26.6612 21.7268 26.6093C21.6116 26.5575 21.487 26.5292 21.3607 26.5267C21.2343 26.5242 21.1087 26.5472 20.9915 26.5945C20.8743 26.6417 20.7678 26.7122 20.6785 26.8016C20.5892 26.891 20.5189 26.9977 20.4719 27.1149C20.4248 27.2322 20.4019 27.3578 20.4046 27.4841C20.4073 27.6105 20.4356 27.7349 20.4876 27.8501C20.5397 27.9653 20.6145 28.0688 20.7075 28.1543L32.7113 40.1601C32.8871 40.3358 33.1255 40.4345 33.3741 40.4345C33.6227 40.4345 33.8611 40.3358 34.0369 40.1601L39.6113 34.5856C39.787 34.4098 39.8857 34.1714 39.8857 33.9228C39.8857 33.6742 39.787 33.4358 39.6113 33.26L27.5775 21.2263C27.4903 21.1363 27.386 21.0647 27.2707 21.0157C27.1554 20.9668 27.0315 20.9416 26.9063 20.9413V20.9393Z" fill="#D3D3D3"/>
<path d="M5.93812 1.19C5.42258 1.17845 4.91005 1.27167 4.43149 1.46374C3.95292 1.65581 3.51826 1.94287 3.15374 2.30763L1.75874 3.70243C0.236245 5.22493 0.27937 7.72822 1.815 9.26197L3.96 11.4089C4.1358 11.5846 4.37422 11.6833 4.62281 11.6833C4.8714 11.6833 5.10981 11.5846 5.28562 11.4089L10.86 5.83447C11.0357 5.65866 11.1345 5.42022 11.1345 5.17162C11.1345 4.92303 11.0357 4.68459 10.86 4.50878L8.71312 2.36187C7.97564 1.62535 6.98029 1.20502 5.93812 1.19ZM5.92312 3.06133C6.44999 3.08008 6.98062 3.28068 7.38749 3.68756L8.87062 5.17254L4.62374 9.41555L3.14062 7.93629C2.29874 7.09441 2.29312 5.8212 3.08437 5.02995L4.47937 3.63308C4.87312 3.23933 5.39624 3.05008 5.92312 3.06133Z" fill="#D3D3D3"/>
<path fill-rule="evenodd" clip-rule="evenodd" d="M7.94062 7.30614L6.61874 8.63754L18.69 20.6261L20.0119 19.295L7.94062 7.30614ZM24.6281 23.8813L23.3062 25.2106L35.1862 37.01L36.5081 35.6806L24.63 23.8813H24.6281Z" fill="#D3D3D3"/>
<path d="M6.45937 35.2325C6.28356 35.0567 6.04515 34.958 5.79656 34.958C5.54797 34.958 5.30955 35.0567 5.13375 35.2325L2.4825 37.8838C2.30674 38.0596 2.20801 38.2979 2.20801 38.5464C2.20801 38.795 2.30674 39.0335 2.4825 39.2093L4.7925 41.5194C4.9683 41.6951 5.20672 41.7938 5.45531 41.7938C5.7039 41.7938 5.94231 41.6951 6.11812 41.5194L8.76937 38.868C8.94512 38.6922 9.04386 38.454 9.04386 38.2054C9.04386 37.9568 8.94512 37.7184 8.76937 37.5426L6.45937 35.2325ZM5.79562 37.2201L6.78 38.2043L5.45437 39.53L4.47 38.5476L5.79562 37.2201Z" fill="#D3D3D3"/>
<path fill-rule="evenodd" clip-rule="evenodd" d="M3.51375 39.1587L0.375 42.2976L1.70062 43.623L4.83938 40.4844L3.51375 39.1587Z" fill="#D3D3D3"/>
<path d="M35.3925 3.57888C35.1476 3.5814 34.9134 3.67965 34.74 3.85263L21.4837 17.1145C21.308 17.2903 21.2093 17.5287 21.2093 17.7773C21.2093 18.0259 21.308 18.2644 21.4837 18.4402L25.5769 22.5333C25.7527 22.709 25.9911 22.8077 26.2397 22.8077C26.4883 22.8077 26.7267 22.709 26.9025 22.5333L40.1587 9.27324C40.3345 9.09743 40.4332 8.85898 40.4332 8.61039C40.4332 8.3618 40.3345 8.12336 40.1587 7.94755L36.0656 3.85263C35.9771 3.76427 35.8717 3.69456 35.7558 3.64755C35.6399 3.60053 35.5157 3.57717 35.3906 3.57888H35.3925ZM35.4037 5.84207L38.1712 8.61131L26.2406 20.5457L23.4712 17.7764L35.4037 5.84207Z" fill="#D3D3D3"/>
<path d="M38.04 0.931408C37.7951 0.933922 37.5609 1.03217 37.3875 1.20515L34.8206 3.77389C34.7277 3.85955 34.653 3.96306 34.6011 4.0783C34.5493 4.19354 34.5212 4.31816 34.5187 4.44452C34.5162 4.57087 34.5392 4.69625 34.5864 4.81347C34.6337 4.9307 34.7041 5.03728 34.7936 5.12658C34.883 5.21589 34.9895 5.28619 35.1068 5.33326C35.2241 5.38033 35.3497 5.40326 35.4761 5.40055C35.6024 5.39785 35.7269 5.36952 35.8421 5.31747C35.9573 5.26542 36.0607 5.19057 36.1462 5.09751L38.0512 3.19436L40.8225 5.962L38.9512 7.83311C38.8641 7.92015 38.7949 8.02352 38.7477 8.13729C38.7005 8.25107 38.6761 8.373 38.676 8.49618C38.6759 8.61936 38.7001 8.74146 38.7472 8.8553C38.7942 8.96914 38.8633 9.07254 38.9503 9.15971C39.0373 9.24687 39.1407 9.31619 39.2545 9.36341C39.3683 9.41063 39.4902 9.43497 39.6134 9.43505C39.7366 9.43514 39.8586 9.41093 39.9724 9.36387C40.0862 9.31681 40.1897 9.24767 40.2769 9.16062L42.8119 6.62576C42.9876 6.44995 43.0864 6.21151 43.0864 5.96292C43.0864 5.71433 42.9876 5.47588 42.8119 5.30008L38.7131 1.20515C38.6246 1.11679 38.5192 1.04709 38.4033 1.00007C38.2874 0.953058 38.1651 0.929695 38.04 0.931408ZM22.0462 16.9083C21.8027 16.9167 21.5721 17.0195 21.4031 17.1951L4.24875 34.3438C4.07299 34.5196 3.97426 34.7581 3.97426 35.0066C3.97426 35.2552 4.07299 35.4937 4.24875 35.6695L8.34375 39.7644C8.43087 39.852 8.53444 39.9216 8.64851 39.969C8.76258 40.0165 8.8849 40.0409 9.00843 40.0409C9.13197 40.0409 9.25429 40.0165 9.36836 39.969C9.48243 39.9216 9.586 39.852 9.67312 39.7644L13.9575 35.48L16.1044 33.3333C16.1939 33.2468 16.2653 33.1433 16.3145 33.0289C16.3636 32.9145 16.3895 32.7915 16.3905 32.667C16.3916 32.5425 16.3679 32.419 16.3208 32.3038C16.2736 32.1886 16.204 32.084 16.116 31.9959C16.028 31.9079 15.9233 31.8382 15.8081 31.7911C15.6929 31.7439 15.5694 31.7204 15.4449 31.7215C15.3205 31.7226 15.1974 31.7484 15.0831 31.7975C14.9687 31.8466 14.8652 31.9181 14.7787 32.0076L12.6319 34.1506L9.0075 37.775L6.23812 35.0076L22.7287 18.5207C22.8653 18.3893 22.9588 18.2196 22.997 18.0339C23.0351 17.8482 23.0161 17.6553 22.9424 17.4807C22.8687 17.3061 22.7437 17.1579 22.5841 17.0557C22.4244 16.9535 22.2357 16.9021 22.0462 16.9083ZM26.1412 21.0032C25.8973 21.0106 25.666 21.1128 25.4962 21.2882L21.2081 25.5763L16.92 29.8644C16.8328 29.9514 16.7637 30.0548 16.7164 30.1685C16.6692 30.2823 16.6449 30.4042 16.6448 30.5274C16.6447 30.6506 16.6689 30.7727 16.7159 30.8865C16.763 31.0004 16.832 31.1038 16.9191 31.191C17.0061 31.2781 17.1095 31.3474 17.2232 31.3947C17.337 31.4419 17.459 31.4662 17.5821 31.4663C17.7053 31.4664 17.8273 31.4422 17.9412 31.3951C18.055 31.3481 18.1585 31.2789 18.2456 31.1919L22.5337 26.9019L26.8219 22.6138C26.9584 22.4824 27.052 22.3127 27.0901 22.127C27.1283 21.9413 27.1092 21.7484 27.0355 21.5738C26.9618 21.3992 26.8369 21.251 26.6772 21.1488C26.5176 21.0466 26.3307 20.997 26.1412 21.0032Z" fill="#D3D3D3"/>
<path fill-rule="evenodd" clip-rule="evenodd" d="M30.195 3.68923C29.952 3.6932 29.7201 3.79134 29.5481 3.96298L21.6 11.9093C21.5104 11.9958 21.439 12.0991 21.3899 12.2135C21.3408 12.3279 21.3149 12.4509 21.3138 12.5753C21.3127 12.6998 21.3365 12.8234 21.3836 12.9386C21.4307 13.0538 21.5003 13.1584 21.5884 13.2464C21.6764 13.3344 21.7811 13.4041 21.8963 13.4513C22.0115 13.4984 22.1349 13.5222 22.2594 13.5211C22.3839 13.52 22.5069 13.494 22.6213 13.4449C22.7357 13.3957 22.8391 13.3245 22.9256 13.235L30.21 5.95242L31.5544 7.29481L36.0919 11.8324C36.1783 11.9219 36.2818 11.9934 36.3962 12.0425C36.5106 12.0916 36.6336 12.1174 36.758 12.1185C36.8825 12.1196 37.006 12.0958 37.1212 12.0487C37.2364 12.0015 37.3411 11.9321 37.4291 11.8441C37.5171 11.756 37.5867 11.6512 37.6339 11.536C37.681 11.4208 37.7047 11.2975 37.7037 11.173C37.7026 11.0485 37.6767 10.9255 37.6276 10.8111C37.5785 10.6967 37.507 10.5932 37.4175 10.5067L32.88 5.96935L30.8737 3.96298C30.7849 3.87382 30.679 3.80342 30.5624 3.75607C30.4458 3.70871 30.3208 3.68726 30.195 3.68923Z" fill="#D3D3D3"/>
</svg>
