<svg width="196" height="47" viewBox="0 0 196 47" fill="none" xmlns="http://www.w3.org/2000/svg">
<path fill-rule="evenodd" clip-rule="evenodd" d="M172 0C158.747 0 148 10.7444 148 23.9998C148 34.6039 154.877 43.5997 164.413 46.7735C165.612 46.9961 166.052 46.2529 166.052 45.619C166.052 45.0467 166.03 43.1562 166.019 41.1507C159.343 42.6025 157.934 38.3191 157.934 38.3191C156.842 35.545 155.269 34.8074 155.269 34.8074C153.091 33.3179 155.433 33.3489 155.433 33.3489C157.843 33.5178 159.112 35.8221 159.112 35.8221C161.253 39.4903 164.726 38.43 166.096 37.8171C166.311 36.266 166.933 35.2068 167.62 34.6075C162.289 34.0014 156.685 31.9432 156.685 22.7471C156.685 20.1269 157.623 17.9859 159.158 16.3048C158.909 15.7007 158.087 13.2597 159.39 9.95395C159.39 9.95395 161.405 9.30892 165.992 12.414C167.906 11.8819 169.96 11.6144 172 11.6053C174.039 11.6144 176.093 11.8811 178.012 12.4132C182.592 9.30813 184.605 9.95315 184.605 9.95315C185.911 13.2585 185.09 15.6999 184.841 16.304C186.379 17.9851 187.311 20.1261 187.311 22.7463C187.311 31.9642 181.696 33.9935 176.352 34.588C177.213 35.3328 177.98 36.7938 177.98 39.0325C177.98 42.2437 177.952 44.8281 177.952 45.6186C177.952 46.2573 178.385 47.0056 179.601 46.77C189.131 43.5929 196 34.6 196 23.9998C196 10.7452 185.254 0 172 0Z" fill="white"/>
<path d="M157.09 34.4581C157.037 34.5773 156.85 34.6131 156.679 34.5316C156.504 34.4537 156.406 34.2912 156.463 34.1716C156.514 34.0484 156.702 34.0146 156.876 34.0968C157.051 34.1751 157.151 34.3389 157.09 34.4581ZM158.062 35.5427C157.948 35.6488 157.724 35.5995 157.572 35.4314C157.415 35.2645 157.386 35.0407 157.502 34.933C157.621 34.8273 157.838 34.8774 157.995 35.0443C158.151 35.2136 158.182 35.435 158.062 35.5427ZM159.009 36.9245C158.862 37.0271 158.621 36.9313 158.472 36.7179C158.325 36.5041 158.325 36.2477 158.476 36.1456C158.624 36.043 158.862 36.1356 159.013 36.3471C159.159 36.5637 159.159 36.8204 159.009 36.9245ZM160.305 38.2603C160.174 38.4053 159.893 38.3664 159.688 38.1689C159.478 37.9753 159.42 37.6999 159.552 37.5553C159.685 37.4098 159.967 37.4503 160.173 37.6467C160.383 37.8398 160.445 38.116 160.305 38.2603ZM162.093 39.0357C162.035 39.2236 161.765 39.3091 161.493 39.2288C161.222 39.1465 161.044 38.9268 161.1 38.7368C161.155 38.5472 161.427 38.4586 161.7 38.544C161.972 38.6259 162.15 38.8445 162.093 39.0357ZM164.058 39.1791C164.064 39.3771 163.834 39.5408 163.549 39.5448C163.262 39.5515 163.029 39.391 163.026 39.1962C163.026 38.9963 163.252 38.8346 163.539 38.829C163.824 38.8238 164.058 38.9832 164.058 39.1791ZM165.885 38.8684C165.919 39.0611 165.721 39.2594 165.437 39.3123C165.159 39.3639 164.901 39.2439 164.865 39.0528C164.831 38.8548 165.033 38.6565 165.311 38.6053C165.595 38.5564 165.849 38.6724 165.885 38.8684Z" fill="white"/>
<path d="M26.3514 21.8364H14.8544C14.7119 21.8365 14.5753 21.8931 14.4746 21.9939C14.3738 22.0946 14.3172 22.2312 14.3171 22.3737V27.9949C14.3172 28.1374 14.3738 28.2741 14.4745 28.375C14.5752 28.4759 14.7119 28.5327 14.8544 28.533H19.3394V35.5165C19.3394 35.5165 18.3323 35.8601 15.5481 35.8601C12.2633 35.8601 7.67463 34.6596 7.67463 24.5694C7.67463 14.4772 12.4528 13.149 16.9387 13.149C20.8217 13.149 22.4946 13.833 23.5589 14.1621C23.8934 14.2646 24.2028 13.9319 24.2028 13.6347L25.4853 8.20391C25.4853 8.06516 25.4383 7.89765 25.2799 7.78398C24.8478 7.47573 22.2105 6 15.5481 6C7.87292 6 0 9.26569 0 24.9628C0 40.6611 9.0139 43 16.6096 43C22.8988 43 26.7141 40.3123 26.7141 40.3123C26.8713 40.2252 26.8884 40.0055 26.8884 39.9047V22.3734C26.8884 22.0772 26.648 21.8364 26.3514 21.8364ZM85.6024 7.88084C85.603 7.81029 85.5897 7.74032 85.5631 7.67494C85.5366 7.60956 85.4974 7.55007 85.4478 7.49988C85.3983 7.44969 85.3392 7.40978 85.2742 7.38247C85.2092 7.35515 85.1393 7.34095 85.0688 7.34069H78.595C78.5243 7.34095 78.4544 7.35513 78.3892 7.38242C78.324 7.40971 78.2648 7.44956 78.215 7.49972C78.1652 7.54988 78.1258 7.60935 78.099 7.67475C78.0722 7.74014 78.0585 7.81017 78.0588 7.88084L78.0605 20.3912H67.97V7.88084C67.9705 7.81026 67.9571 7.74027 67.9305 7.67489C67.904 7.60951 67.8647 7.55003 67.8151 7.49984C67.7655 7.44966 67.7064 7.40976 67.6413 7.38245C67.5763 7.35514 67.5064 7.34095 67.4359 7.34069H60.9626C60.8201 7.34145 60.6837 7.39877 60.5834 7.50005C60.4831 7.60134 60.4272 7.73831 60.4279 7.88084V41.7553C60.4279 42.0539 60.668 42.2969 60.9626 42.2969H67.4359C67.7319 42.2969 67.97 42.0536 67.97 41.7553V27.2658H78.0605L78.0429 41.7553C78.0429 42.0539 78.2833 42.2969 78.5793 42.2969H85.0682C85.3648 42.2969 85.6018 42.0536 85.6024 41.7553V7.88084ZM38.5672 12.3263C38.5672 9.99501 36.6983 8.11132 34.3927 8.11132C32.0894 8.11132 30.2191 9.99501 30.2191 12.3263C30.2191 14.6547 32.0894 16.5432 34.3927 16.5432C36.6983 16.5432 38.5672 14.6547 38.5672 12.3263ZM38.1042 18.9733C38.1046 18.8307 38.0484 18.6938 37.948 18.5926C37.8476 18.4914 37.7112 18.4342 37.5686 18.4334H31.1156C30.8196 18.4334 30.5547 18.7388 30.5547 19.036V41.438C30.5547 42.0966 30.9649 42.292 31.4959 42.292H37.31C37.9478 42.292 38.1042 41.9787 38.1042 41.4277V18.9733ZM110.204 18.4844H103.78C103.486 18.4844 103.246 18.7271 103.246 19.026V35.6356C103.246 35.6356 101.614 36.8299 99.2976 36.8299C96.9814 36.8299 96.3669 35.7789 96.3669 33.5109V19.026C96.3669 18.7271 96.1273 18.4844 95.8328 18.4844H89.3128C89.0188 18.4844 88.7775 18.7271 88.7775 19.026V34.6074C88.7775 41.3439 92.532 42.992 97.6974 42.992C101.935 42.992 105.351 40.6514 105.351 40.6514C105.351 40.6514 105.513 41.8847 105.587 42.0311C105.661 42.177 105.852 42.3242 106.059 42.3242L110.207 42.306C110.501 42.306 110.743 42.0627 110.743 41.7653L110.74 19.0263C110.74 18.7271 110.5 18.4844 110.204 18.4844ZM125.228 36.8094C123 36.7415 121.488 35.7302 121.488 35.7302V25.0033C121.488 25.0033 122.979 24.0893 124.809 23.9258C127.122 23.7187 129.351 24.4175 129.351 29.9355C129.351 35.7547 128.345 36.9031 125.228 36.8094ZM127.762 17.7238C124.113 17.7238 121.631 19.3516 121.631 19.3516V7.88112C121.631 7.58199 121.392 7.34069 121.097 7.34069H114.606C114.535 7.34103 114.465 7.35527 114.4 7.38262C114.335 7.40996 114.276 7.44987 114.226 7.50006C114.176 7.55025 114.137 7.60973 114.11 7.67512C114.084 7.7405 114.07 7.8105 114.071 7.88112V41.7553C114.071 42.0539 114.31 42.2969 114.606 42.2969H119.111C119.313 42.2969 119.467 42.1923 119.58 42.0094C119.692 41.8274 119.854 40.4477 119.854 40.4477C119.854 40.4477 122.508 42.9632 127.534 42.9632C133.433 42.9632 136.816 39.9708 136.816 29.5296C136.816 19.0881 131.413 17.7238 127.762 17.7238ZM56.7095 18.4306H51.8536L51.8461 12.0152C51.8461 11.7724 51.7211 11.6511 51.4405 11.6511H44.8231C44.5658 11.6511 44.4276 11.7644 44.4276 12.0114V18.6411C44.4276 18.6411 41.1115 19.4414 40.8873 19.5063C40.7755 19.5387 40.6772 19.6066 40.6073 19.6997C40.5373 19.7928 40.4995 19.9061 40.4996 20.0225V24.1885C40.4996 24.4882 40.7389 24.7292 41.0349 24.7292H44.4276V34.751C44.4276 42.1952 49.6491 42.9265 53.1726 42.9265C54.7825 42.9265 56.7084 42.4097 57.0263 42.2918C57.2186 42.2211 57.3303 42.022 57.3303 41.806L57.3357 37.2233C57.3357 36.9242 57.0833 36.6829 56.7989 36.6829C56.516 36.6829 55.7921 36.798 55.0469 36.798C52.6618 36.798 51.8536 35.6889 51.8536 34.2533L51.8533 24.7289H56.7095C57.0055 24.7289 57.2451 24.4876 57.2451 24.1882V18.9699C57.2454 18.8993 57.2318 18.8293 57.2051 18.7639C57.1783 18.6986 57.1389 18.6392 57.0892 18.5891C57.0394 18.539 56.9803 18.4992 56.9151 18.472C56.85 18.4448 56.7801 18.4307 56.7095 18.4306Z" fill="white"/>
</svg>
