<svg width="199" height="53" viewBox="0 0 199 53" fill="none" xmlns="http://www.w3.org/2000/svg">
<g clip-path="url(#clip0_61_22)">
<path d="M146.608 3.79664C146.608 1.70091 148.341 0 150.478 0H195.101C197.239 0 198.971 1.70091 198.971 3.79664V49.2041C198.971 51.3005 197.239 53 195.101 53H150.478C148.341 53 146.608 51.3005 146.608 49.2048V3.79664Z" fill="#006699"/>
<path d="M0.0270996 44.3954H21.8798V37.1788H7.93677V9.64939H0.0270996V44.3954ZM32.9436 44.3954V20.4631H25.0347V44.3954H32.9436ZM28.9898 17.1961C31.7473 17.1961 33.464 15.3582 33.464 13.0602C33.4129 10.7122 31.7473 8.92648 29.0424 8.92648C26.3367 8.92648 24.5675 10.7129 24.5675 13.0602C24.5675 15.3582 26.2842 17.1961 28.938 17.1961H28.9898ZM36.6155 44.3954H44.5244V31.03C44.5244 30.3147 44.5756 29.5995 44.785 29.09C45.3558 27.6608 46.6572 26.1803 48.8424 26.1803C51.705 26.1803 52.8502 28.3754 52.8502 31.5909V44.3947H60.7578V30.6727C60.7578 23.3213 56.8558 19.9007 51.6518 19.9007C47.3856 19.9007 45.512 22.2995 44.4712 23.9337H44.5244V20.4631H36.6155C36.7198 22.7089 36.6155 44.3954 36.6155 44.3954ZM71.9156 9.64939H64.0066V44.3954H71.9156V36.636L73.8922 34.1329L80.0844 44.3954H89.8138L79.4085 29.539L88.5131 19.4322H78.9925C78.9925 19.4322 72.4885 28.4741 71.9156 29.5473V9.64939Z" fill="white"/>
<path d="M110.964 34.4123C111.068 33.7979 111.224 32.619 111.224 31.2858C111.224 25.0994 108.102 18.8184 99.8812 18.8184C91.0877 18.8184 87.0288 25.8132 87.0288 32.1574C87.0288 40.0037 91.9723 44.9035 100.609 44.9035C104.044 44.9035 107.217 44.3947 109.819 43.3221L108.778 38.0685C106.644 38.7803 104.459 39.1369 101.754 39.1369C98.0602 39.1369 94.8348 37.6112 94.5743 34.3609L110.964 34.4109V34.4123ZM94.5224 29.0309C94.7305 26.9887 96.0843 23.9754 99.4659 23.9754C103.055 23.9754 103.889 27.1923 103.889 29.0309H94.5224ZM130.746 9.64938V21.6774H130.642C129.496 19.9939 127.103 18.8706 123.931 18.8706C117.842 18.8706 112.483 23.771 112.535 32.1428C112.535 39.9029 117.374 44.957 123.409 44.957C126.688 44.957 129.809 43.5265 131.371 40.7697H131.526L131.839 44.3953H138.863C138.759 42.7104 138.654 39.8007 138.654 36.9418V9.64868H130.745L130.746 9.64938ZM130.746 33.3175C130.746 33.9292 130.694 34.543 130.589 35.0518C130.123 37.2483 128.249 38.7782 125.959 38.7782C122.682 38.7782 120.548 36.1244 120.548 31.9385C120.548 28.0084 122.37 24.8429 126.012 24.8429C128.457 24.8429 130.174 26.5271 130.642 28.6194C130.746 29.0802 130.746 29.5911 130.746 30.0499V33.3175Z" fill="white"/>
<path d="M162.481 44.3662V20.4339H154.572V44.3662H162.481ZM158.528 17.1669C161.286 17.1669 163.002 15.329 163.002 13.0324C162.95 10.6837 161.286 8.89728 158.581 8.89728C155.874 8.89728 154.106 10.6837 154.106 13.0324C154.106 15.329 155.822 17.1669 158.476 17.1669H158.527H158.528ZM166.859 44.3662H174.767V31.0029C174.767 30.2883 174.819 29.5723 175.027 29.0621C175.599 27.6323 176.9 26.1524 179.086 26.1524C181.947 26.1524 183.092 28.3469 183.092 31.5645V44.3662H191V30.6442C191 23.2935 187.099 19.8729 181.896 19.8729C177.629 19.8729 175.756 22.271 174.715 23.9045H174.768V20.4345H166.859C166.962 22.6797 166.859 44.3662 166.859 44.3662Z" fill="white"/>
</g>
<defs>
<clipPath id="clip0_61_22">
<rect width="199" height="53" fill="white"/>
</clipPath>
</defs>
</svg>
