<svg width="34" height="50" viewBox="0 0 34 50" fill="none" xmlns="http://www.w3.org/2000/svg">
<path d="M29.9375 9.54687C30.1681 8.99791 30.285 8.40791 30.2813 7.8125C30.2823 7.17392 30.1528 6.54187 29.9008 5.95512C29.6488 5.36837 29.2796 4.8393 28.8158 4.40037C28.352 3.96143 27.8034 3.6219 27.2036 3.40258C26.6039 3.18327 25.9657 3.08881 25.3281 3.125C25.0706 2.39959 24.6385 1.74875 24.0698 1.22998C23.5011 0.711206 22.8134 0.340465 22.0675 0.150503C21.3215 -0.0394586 20.5403 -0.042795 19.7927 0.140789C19.0452 0.324373 18.3543 0.689226 17.7813 1.20312C17.1854 0.672134 16.4637 0.302096 15.6848 0.128073C14.9059 -0.0459504 14.0954 -0.018195 13.3302 0.208709C12.565 0.435613 11.8704 0.85415 11.3122 1.42466C10.754 1.99517 10.3508 2.69876 10.1406 3.46875C9.59167 3.23816 9.00167 3.12122 8.40625 3.125C7.16305 3.125 5.97077 3.61886 5.09169 4.49793C4.21261 5.37701 3.71875 6.56929 3.71875 7.8125C3.71491 8.40286 3.8319 8.98777 4.0625 9.53125C3.06624 9.7995 2.18631 10.389 1.55916 11.2082C0.932001 12.0275 0.592661 13.0308 0.593753 14.0625C0.603764 14.7098 0.747768 15.3481 1.01669 15.937C1.28561 16.526 1.67362 17.0528 2.15625 17.4844L5.35938 50H28.6406L31.8906 17.4844C32.4979 16.9152 32.9428 16.1947 33.1794 15.3967C33.416 14.5988 33.4359 13.7522 33.2371 12.944C33.0382 12.1358 32.6277 11.3952 32.0478 10.7981C31.468 10.2011 30.7396 9.7692 29.9375 9.54687ZM3.79688 18.75H6.92188L7.625 26.1562C6.50806 26.9286 5.55708 27.9168 4.82813 29.0625L3.79688 18.75ZM6.76563 48.4375L5.70313 37.7031C6.65478 38.7766 7.79964 39.6618 9.07813 40.3125L9.89063 48.4375H6.76563ZM11.4531 48.4375L10.75 41.0625C11.9037 41.505 13.1042 41.8143 14.3281 41.9844L14.6406 48.4375H11.4531ZM17.8125 48.4375H16.25L15.9219 42.1875H18.2031L17.8125 48.4375ZM22.5 48.4375H19.375L19.6875 41.9844C20.9061 41.8131 22.1013 41.5038 23.25 41.0625L22.5 48.4375ZM27.1875 48.4375H24.0625L24.875 40.3125C26.1535 39.6618 27.2984 38.7766 28.25 37.7031L27.1875 48.4375ZM17 40.625C10.5313 40.625 5.28125 37.125 5.28125 32.8125C5.28125 28.5 10.5313 25 17 25C23.4688 25 28.7188 28.5 28.7188 32.8125C28.7188 37.125 23.4688 40.625 17 40.625ZM8.48438 18.75H13.1719L13.4375 23.7969C11.9589 24.0846 10.5282 24.579 9.1875 25.2656L8.48438 18.75ZM14.7344 18.75H19.3281L19.0938 23.5625C17.7238 23.3958 16.3387 23.3958 14.9688 23.5625L14.7344 18.75ZM20.6406 23.7969L20.875 18.75H25.5625L24.8125 25.2656C23.4865 24.5831 22.0719 24.0888 20.6094 23.7969H20.6406ZM29.2031 29.0625C28.465 27.9137 27.5032 26.9254 26.375 26.1562L27.0781 18.75H30.2031L29.2031 29.0625ZM28.7188 17.1875H5.28125C4.45245 17.1875 3.65759 16.8583 3.07154 16.2722C2.48549 15.6862 2.15625 14.8913 2.15625 14.0625C2.15625 13.2337 2.48549 12.4388 3.07154 11.8528C3.65759 11.2667 4.45245 10.9375 5.28125 10.9375C5.44149 10.9609 5.60498 10.9307 5.74627 10.8516C5.88756 10.7725 5.99874 10.6489 6.0625 10.5C6.12744 10.371 6.15457 10.2262 6.14075 10.0825C6.12692 9.9387 6.07271 9.80177 5.98438 9.6875C5.55068 9.15654 5.30361 8.4977 5.28125 7.8125C5.28125 6.9837 5.61049 6.18884 6.19654 5.60279C6.7826 5.01674 7.57745 4.6875 8.40625 4.6875C9.0842 4.692 9.74229 4.91685 10.2813 5.32812C10.403 5.40436 10.5438 5.44479 10.6875 5.44479C10.8312 5.44479 10.972 5.40436 11.0938 5.32812C11.2161 5.26868 11.3209 5.17831 11.3976 5.06595C11.4744 4.95359 11.5204 4.82313 11.5313 4.6875C11.5345 4.03295 11.7432 3.39594 12.1279 2.86637C12.5127 2.33681 13.0539 1.94141 13.6754 1.73597C14.2969 1.53054 14.9672 1.52544 15.5917 1.72139C16.2163 1.91735 16.7635 2.30447 17.1563 2.82812C17.2309 2.92244 17.3258 2.99865 17.4341 3.05104C17.5423 3.10343 17.661 3.13064 17.7813 3.13064C17.9015 3.13064 18.0202 3.10343 18.1284 3.05104C18.2367 2.99865 18.3317 2.92244 18.4063 2.82812C18.6957 2.43713 19.0724 2.11912 19.5064 1.8994C19.9405 1.67967 20.4198 1.56431 20.9063 1.5625C21.6485 1.55106 22.3705 1.8042 22.9431 2.27658C23.5157 2.74897 23.9014 3.40976 24.0313 4.14062C24.0512 4.24517 24.0919 4.34466 24.151 4.43322C24.21 4.52178 24.2862 4.59761 24.375 4.65625C24.4606 4.71551 24.5578 4.75592 24.6601 4.77477C24.7625 4.79363 24.8677 4.79051 24.9688 4.76562C25.1974 4.7443 25.4276 4.7443 25.6563 4.76562C26.4851 4.76562 27.2799 5.09486 27.866 5.68091C28.452 6.26696 28.7813 7.06182 28.7813 7.89062C28.7768 8.56857 28.5519 9.22666 28.1406 9.76562C28.0607 9.88602 28.018 10.0273 28.018 10.1719C28.018 10.3164 28.0607 10.4577 28.1406 10.5781C28.2036 10.6778 28.2884 10.7618 28.3885 10.8241C28.4886 10.8863 28.6015 10.9251 28.7188 10.9375C29.5476 10.9375 30.3424 11.2667 30.9285 11.8528C31.5145 12.4388 31.8438 13.2337 31.8438 14.0625C31.8438 14.8913 31.5145 15.6862 30.9285 16.2722C30.3424 16.8583 29.5476 17.1875 28.7188 17.1875ZM10.75 36.7187H23.25V28.9062H10.75V36.7187ZM12.3125 30.4687H21.6875V35.1562H12.3125V30.4687ZM26.0625 11.2187C26.3119 10.3197 26.2019 9.359 25.7557 8.53963C25.3096 7.72027 24.5623 7.10651 23.6719 6.82812C22.6394 6.36639 21.4673 6.32713 20.4063 6.71875C20.0598 6.84484 19.7427 7.04007 19.4741 7.29256C19.2055 7.54505 18.991 7.84953 18.8438 8.1875C18.3196 8.03768 17.7695 8.002 17.2304 8.08286C16.6913 8.16373 16.1759 8.35925 15.7188 8.65625C14.9265 8.07862 13.9643 7.7817 12.9844 7.8125C12.0549 7.72387 11.1274 8.00049 10.3983 8.58377C9.66917 9.16706 9.1957 10.0112 9.07813 10.9375C8.27077 11.0018 7.51274 11.3517 6.94004 11.9244C6.36734 12.4971 6.01744 13.2551 5.95313 14.0625C5.95313 14.2697 6.03544 14.4684 6.18195 14.6149C6.32846 14.7614 6.52718 14.8437 6.73438 14.8437C6.94158 14.8437 7.14029 14.7614 7.2868 14.6149C7.43332 14.4684 7.51563 14.2697 7.51563 14.0625C7.51563 13.2187 8.59375 12.5 9.85938 12.5V11.8125L9.96875 12.5156C10.1178 12.533 10.2687 12.5102 10.406 12.4498C10.5434 12.3894 10.6621 12.2935 10.75 12.1719C10.8186 12.0531 10.8547 11.9184 10.8547 11.7812C10.8547 11.6441 10.8186 11.5094 10.75 11.3906C10.68 11.2497 10.6426 11.0948 10.6406 10.9375C10.6406 10.0937 11.7188 9.375 12.9844 9.375C14.25 9.375 15.3281 10.0937 15.3281 10.9375C15.3279 11.1428 15.2682 11.3436 15.1563 11.5156C15.0901 11.6142 15.0482 11.7271 15.0342 11.845C15.0202 11.9629 15.0343 12.0824 15.0755 12.1938C15.1167 12.3052 15.1838 12.4052 15.2711 12.4856C15.3585 12.566 15.4637 12.6245 15.5781 12.6562C16.375 12.9375 16.8906 13.4844 16.8906 14.0625C16.8906 14.2697 16.9729 14.4684 17.1195 14.6149C17.266 14.7614 17.4647 14.8437 17.6719 14.8437C17.8791 14.8437 18.0778 14.7614 18.2243 14.6149C18.3708 14.4684 18.4531 14.2697 18.4531 14.0625C18.4411 13.5377 18.2901 13.0256 18.0156 12.5782C17.7412 12.1308 17.353 11.7641 16.8906 11.5156C16.9145 11.3237 16.9145 11.1295 16.8906 10.9375C16.8865 10.6044 16.8175 10.2754 16.6875 9.96875C17.0477 9.79331 17.4431 9.70215 17.8438 9.70215C18.2444 9.70215 18.6398 9.79331 19 9.96875H19.1875C19.3091 10.0143 19.4404 10.0282 19.5688 10.009C19.6973 9.9899 19.8188 9.9384 19.9219 9.85937C20.0227 9.7803 20.1024 9.67766 20.1542 9.5605C20.206 9.44334 20.2281 9.31524 20.2188 9.1875C20.2212 9.0319 20.253 8.87815 20.3125 8.73437C20.4523 8.44147 20.698 8.21251 21 8.09375C21.6765 7.86731 22.4138 7.90641 23.0625 8.20312C24.2344 8.70312 24.9375 9.76562 24.625 10.5469C24.5392 10.7401 24.3978 10.9033 24.2188 11.0156C24.13 11.0904 24.0586 11.1837 24.0097 11.289C23.9607 11.3942 23.9354 11.5089 23.9354 11.625C23.9354 11.7411 23.9607 11.8558 24.0097 11.961C24.0586 12.0663 24.13 12.1596 24.2188 12.2344C24.4903 12.4439 24.6922 12.7305 24.7982 13.0567C24.9041 13.3829 24.9091 13.7334 24.8125 14.0625C24.7689 14.1565 24.7449 14.2584 24.7418 14.362C24.7388 14.4656 24.7568 14.5687 24.7948 14.6651C24.8328 14.7615 24.8899 14.8492 24.9628 14.9229C25.0357 14.9966 25.1228 15.0547 25.2188 15.0937C25.3165 15.1159 25.4179 15.1159 25.5156 15.0937C25.6685 15.0963 25.8187 15.0531 25.9468 14.9695C26.075 14.886 26.1751 14.766 26.2344 14.625C26.4246 14.1281 26.4786 13.5895 26.3907 13.0647C26.3028 12.54 26.0762 12.0483 25.7344 11.6406C25.8571 11.5109 25.967 11.3696 26.0625 11.2187Z" fill="#9DA9B3" fill-opacity="0.79"/>
</svg>
