<svg width="22" height="32" viewBox="0 0 22 32" fill="none" xmlns="http://www.w3.org/2000/svg">
<path d="M19.28 6.11C19.4276 5.75867 19.5024 5.38107 19.5 5C19.5007 4.59131 19.4178 4.1868 19.2565 3.81128C19.0952 3.43576 18.8589 3.09716 18.5621 2.81624C18.2653 2.53532 17.9142 2.31802 17.5303 2.17766C17.1465 2.0373 16.738 1.97684 16.33 2C16.1652 1.53574 15.8886 1.1192 15.5247 0.787191C15.1607 0.455177 14.7206 0.217903 14.2432 0.096327C13.7658 -0.0252486 13.2658 -0.0273839 12.7873 0.0901097C12.3089 0.207603 11.8668 0.44111 11.5 0.770003C11.1186 0.43017 10.6568 0.193346 10.1583 0.0819715C9.65975 -0.0294034 9.14104 -0.0116399 8.65131 0.133579C8.16157 0.278797 7.71702 0.546661 7.35979 0.911787C7.00256 1.27691 6.74448 1.72721 6.61 2.22C6.25866 2.07242 5.88106 1.99758 5.5 2C4.70435 2 3.94129 2.31607 3.37868 2.87868C2.81607 3.44129 2.5 4.20435 2.5 5C2.49754 5.37784 2.57241 5.75218 2.72 6.1C2.08239 6.27169 1.51924 6.64894 1.11786 7.17326C0.716479 7.69758 0.499301 8.33968 0.5 9C0.506407 9.41431 0.59857 9.8228 0.770679 10.1997C0.942789 10.5766 1.19111 10.9138 1.5 11.19L3.55 32H18.45L20.53 11.19C20.9187 10.8258 21.2034 10.3646 21.3548 9.85392C21.5063 9.34323 21.519 8.80142 21.3917 8.28418C21.2644 7.76693 21.0017 7.2929 20.6306 6.9108C20.2595 6.52869 19.7933 6.2523 19.28 6.11ZM2.55 12H4.55L5 16.74C4.28516 17.2343 3.67653 17.8667 3.21 18.6L2.55 12ZM4.45 31L3.77 24.13C4.37906 24.817 5.11177 25.3835 5.93 25.8L6.45 31H4.45ZM7.45 31L7 26.28C7.73839 26.5632 8.5067 26.7611 9.29 26.87L9.49 31H7.45ZM11.52 31H10.52L10.31 27H11.77L11.52 31ZM14.52 31H12.52L12.72 26.87C13.4999 26.7604 14.2648 26.5624 15 26.28L14.52 31ZM17.52 31H15.52L16.04 25.8C16.8582 25.3835 17.5909 24.817 18.2 24.13L17.52 31ZM11 26C6.86 26 3.5 23.76 3.5 21C3.5 18.24 6.86 16 11 16C15.14 16 18.5 18.24 18.5 21C18.5 23.76 15.14 26 11 26ZM5.55 12H8.55L8.72 15.23C7.77371 15.4141 6.85805 15.7306 6 16.17L5.55 12ZM9.55 12H12.49L12.34 15.08C11.4632 14.9733 10.5768 14.9733 9.7 15.08L9.55 12ZM13.33 15.23L13.48 12H16.48L16 16.17C15.1514 15.7332 14.246 15.4168 13.31 15.23H13.33ZM18.81 18.6C18.3376 17.8648 17.7221 17.2322 17 16.74L17.45 12H19.45L18.81 18.6ZM18.5 11H3.5C2.96957 11 2.46086 10.7893 2.08579 10.4142C1.71071 10.0391 1.5 9.53044 1.5 9C1.5 8.46957 1.71071 7.96086 2.08579 7.58579C2.46086 7.21072 2.96957 7 3.5 7C3.60255 7.01499 3.70718 6.99566 3.79761 6.94502C3.88804 6.89438 3.95919 6.81527 4 6.72C4.04156 6.63744 4.05892 6.5448 4.05008 6.45278C4.04123 6.36077 4.00653 6.27314 3.95 6.2C3.67243 5.86019 3.51431 5.43854 3.5 5C3.5 4.46957 3.71071 3.96086 4.08579 3.58579C4.46086 3.21072 4.96957 3 5.5 3C5.93388 3.00288 6.35506 3.14679 6.7 3.41C6.77794 3.4588 6.86804 3.48467 6.96 3.48467C7.05196 3.48467 7.14206 3.4588 7.22 3.41C7.29833 3.37196 7.36537 3.31412 7.41448 3.24221C7.4636 3.1703 7.49307 3.08681 7.5 3C7.50209 2.58109 7.63566 2.17341 7.88188 1.83448C8.12809 1.49556 8.47452 1.24251 8.87227 1.11103C9.27002 0.979548 9.69901 0.976285 10.0987 1.1017C10.4984 1.22711 10.8487 1.47486 11.1 1.81C11.1477 1.87036 11.2085 1.91914 11.2778 1.95267C11.3471 1.9862 11.423 2.00362 11.5 2.00362C11.577 2.00362 11.6529 1.9862 11.7222 1.95267C11.7915 1.91914 11.8523 1.87036 11.9 1.81C12.0852 1.55977 12.3264 1.35624 12.6041 1.21562C12.8819 1.075 13.1887 1.00116 13.5 1C13.975 0.992682 14.4371 1.15469 14.8036 1.45702C15.17 1.75935 15.4169 2.18225 15.5 2.65C15.5128 2.71691 15.5388 2.78059 15.5766 2.83726C15.6144 2.89394 15.6631 2.94248 15.72 2.98C15.7748 3.01793 15.837 3.04379 15.9025 3.05586C15.968 3.06793 16.0353 3.06593 16.1 3.05C16.2463 3.03636 16.3937 3.03636 16.54 3.05C17.0704 3.05 17.5791 3.26072 17.9542 3.63579C18.3293 4.01086 18.54 4.51957 18.54 5.05C18.5371 5.48389 18.3932 5.90507 18.13 6.25C18.0788 6.32706 18.0515 6.4175 18.0515 6.51C18.0515 6.6025 18.0788 6.69295 18.13 6.77C18.1703 6.83377 18.2246 6.88759 18.2886 6.92742C18.3527 6.96725 18.425 6.99207 18.5 7C19.0304 7 19.5391 7.21072 19.9142 7.58579C20.2893 7.96086 20.5 8.46957 20.5 9C20.5 9.53044 20.2893 10.0391 19.9142 10.4142C19.5391 10.7893 19.0304 11 18.5 11ZM7 23.5H15V18.5H7V23.5ZM8 19.5H14V22.5H8V19.5ZM16.8 7.18C16.9596 6.60464 16.8892 5.98976 16.6037 5.46537C16.3181 4.94098 15.8399 4.54817 15.27 4.37C14.6092 4.0745 13.8591 4.04937 13.18 4.3C12.9583 4.3807 12.7553 4.50565 12.5834 4.66724C12.4115 4.82884 12.2742 5.02371 12.18 5.24C11.8446 5.14412 11.4925 5.12129 11.1475 5.17304C10.8024 5.22479 10.4725 5.34992 10.18 5.54C9.67299 5.17032 9.05717 4.98029 8.43 5C7.83512 4.94328 7.24152 5.12032 6.77489 5.49362C6.30827 5.86692 6.00525 6.40718 5.93 7C5.41329 7.04117 4.92815 7.2651 4.56162 7.63163C4.19509 7.99815 3.97116 8.48329 3.93 9C3.93 9.13261 3.98268 9.25979 4.07645 9.35356C4.17021 9.44732 4.29739 9.5 4.43 9.5C4.56261 9.5 4.68978 9.44732 4.78355 9.35356C4.87732 9.25979 4.93 9.13261 4.93 9C4.93 8.46 5.62 8 6.43 8V7.56L6.5 8.01C6.59538 8.0211 6.69198 8.00656 6.77987 7.96789C6.86776 7.92922 6.94374 7.86781 7 7.79C7.04388 7.71399 7.06699 7.62777 7.06699 7.54C7.06699 7.45223 7.04388 7.36601 7 7.29C6.95517 7.19983 6.93124 7.1007 6.93 7C6.93 6.46 7.62 6 8.43 6C9.24 6 9.93 6.46 9.93 7C9.92984 7.13137 9.89164 7.25988 9.82 7.37C9.77765 7.4331 9.75088 7.50534 9.7419 7.5808C9.73292 7.65626 9.74198 7.73277 9.76834 7.80404C9.7947 7.87531 9.83761 7.93931 9.89353 7.99076C9.94945 8.04221 10.0168 8.07965 10.09 8.1C10.6 8.28 10.93 8.63 10.93 9C10.93 9.13261 10.9827 9.25979 11.0764 9.35356C11.1702 9.44732 11.2974 9.5 11.43 9.5C11.5626 9.5 11.6898 9.44732 11.7836 9.35356C11.8773 9.25979 11.93 9.13261 11.93 9C11.9223 8.66416 11.8257 8.33636 11.65 8.05002C11.4743 7.76369 11.2259 7.52904 10.93 7.37C10.9453 7.24714 10.9453 7.12286 10.93 7C10.9274 6.78685 10.8832 6.57626 10.8 6.38C11.0305 6.26773 11.2836 6.20938 11.54 6.20938C11.7964 6.20938 12.0495 6.26773 12.28 6.38H12.4C12.4778 6.40916 12.5618 6.41803 12.6441 6.40579C12.7263 6.39354 12.804 6.36058 12.87 6.31C12.9345 6.2594 12.9856 6.19371 13.0187 6.11873C13.0518 6.04374 13.066 5.96176 13.06 5.88C13.0615 5.78042 13.0819 5.68202 13.12 5.59C13.2094 5.40254 13.3667 5.25601 13.56 5.18C13.993 5.03508 14.4648 5.06011 14.88 5.25C15.63 5.57 16.08 6.25 15.88 6.75C15.8251 6.87364 15.7346 6.97809 15.62 7.05C15.5632 7.09788 15.5175 7.15758 15.4862 7.22495C15.4549 7.29231 15.4386 7.36571 15.4386 7.44C15.4386 7.5143 15.4549 7.58769 15.4862 7.65506C15.5175 7.72242 15.5632 7.78213 15.62 7.83C15.7938 7.96409 15.923 8.14751 15.9908 8.35627C16.0586 8.56503 16.0618 8.7894 16 9C15.9721 9.06018 15.9567 9.12538 15.9548 9.19168C15.9528 9.25798 15.9643 9.32398 15.9887 9.38568C16.013 9.44739 16.0495 9.50352 16.0962 9.55068C16.1428 9.59783 16.1986 9.63502 16.26 9.66C16.3225 9.67417 16.3875 9.67417 16.45 9.66C16.5479 9.66166 16.644 9.63397 16.726 9.5805C16.808 9.52703 16.8721 9.45023 16.91 9.36C17.0318 9.04201 17.0663 8.69726 17.01 8.36144C16.9538 8.02562 16.8087 7.71094 16.59 7.45C16.6686 7.36699 16.7389 7.27657 16.8 7.18Z" fill="#FF5900"/>
</svg>
