<svg width="50" height="50" viewBox="0 0 50 50" fill="none" xmlns="http://www.w3.org/2000/svg">
<path d="M33.8724 40.1602L33.7301 40.0178L33.5606 40.1265C30.1911 42.2881 26.2101 43.5749 21.9125 43.5749C9.9495 43.5749 0.25 33.8768 0.25 21.9124C0.25 9.94805 9.9495 0.25 21.9125 0.25C33.8771 0.25 43.575 9.94785 43.575 21.9124C43.575 26.2085 42.2866 30.1911 40.1265 33.5623L40.0179 33.7317L40.1602 33.874L48.4476 42.1614C50.1841 43.8979 50.1841 46.711 48.4476 48.4476C46.711 50.1841 43.8964 50.1841 42.1597 48.4476L33.8724 40.1602ZM21.9125 6.01065C13.1308 6.01065 6.01075 13.1291 6.01075 21.9123C6.01075 30.6955 13.1309 37.8141 21.9125 37.8141C30.6956 37.8141 37.8142 30.6955 37.8142 21.9123C37.8142 13.1291 30.6956 6.01065 21.9125 6.01065Z" fill="white" stroke="#CD761C" stroke-width="0.5"/>
</svg>
