<svg width="50" height="50" viewBox="0 0 50 50" fill="none" xmlns="http://www.w3.org/2000/svg">
<path d="M48.6244 48.6244C46.7902 50.4585 43.8172 50.4585 41.983 48.6244L33.6956 40.337C30.2885 42.5227 26.2611 43.8249 21.9125 43.8249C9.81144 43.8249 0 34.0149 0 21.9124C0 9.80997 9.81144 0 21.9125 0C34.0152 0 43.825 9.80977 43.825 21.9124C43.825 26.2595 42.5211 30.2885 40.337 33.6972L48.6244 41.9846C50.4585 43.8188 50.4585 46.7902 48.6244 48.6244ZM21.9125 6.26065C13.2689 6.26065 6.26075 13.2672 6.26075 21.9123C6.26075 30.5575 13.269 37.5641 21.9125 37.5641C30.5576 37.5641 37.5642 30.5575 37.5642 21.9123C37.5642 13.2672 30.5576 6.26065 21.9125 6.26065Z" fill="#CA2173"/>
</svg>
