<svg width="45" height="45" viewBox="0 0 45 45" fill="none" xmlns="http://www.w3.org/2000/svg">
<mask id="path-1-inside-1_52_3" fill="white">
<path d="M19.19 44.87H25.64C26.54 44.87 27.26 44.15 27.27 43.26V40.35C28.75 39.95 30.16 39.36 31.49 38.6L33.55 40.66C33.85 40.96 34.24 41.12 34.69 41.13C35.12 41.13 35.53 40.96 35.83 40.66L40.39 36.09C41.02 35.46 41.02 34.44 40.39 33.81L38.31 31.73C39.07 30.4 39.66 28.99 40.06 27.51H42.97C43.86 27.51 44.58 26.79 44.58 25.9V19.44C44.58 18.55 43.86 17.83 42.97 17.83H40.06C39.65 16.35 39.07 14.94 38.31 13.61L40.37 11.56C41 10.93 41 9.91 40.37 9.28L35.81 4.71C35.51 4.41 35.1 4.24 34.67 4.24C34.24 4.24 33.83 4.41 33.53 4.71L31.47 6.77C30.14 6.01 28.73 5.42 27.25 5.02V2.11C27.25 1.22 26.53 0.5 25.64 0.5H19.19C18.3 0.5 17.58 1.22 17.58 2.11V5.05C16.11 5.45 14.69 6.04 13.36 6.8L11.3 4.74C10.67 4.11 9.65 4.11 9.02 4.74L4.46 9.31C3.83 9.94 3.83 10.96 4.46 11.59L6.52 13.64C5.76 14.97 5.17 16.38 4.77 17.86H1.86C0.97 17.86 0.25 18.58 0.25 19.47V25.93C0.25 26.82 0.97 27.54 1.86 27.54H4.77C5.18 29.02 5.76 30.43 6.52 31.76L4.46 33.81C3.83 34.44 3.83 35.46 4.46 36.09L9.02 40.66C9.32 40.96 9.73 41.13 10.16 41.13C10.59 41.13 11 40.96 11.3 40.66L13.36 38.6C14.69 39.35 16.1 39.94 17.58 40.35V43.26C17.58 44.15 18.3 44.87 19.19 44.87Z"/>
</mask>
<path d="M19.19 44.87H25.64C26.54 44.87 27.26 44.15 27.27 43.26V40.35C28.75 39.95 30.16 39.36 31.49 38.6L33.55 40.66C33.85 40.96 34.24 41.12 34.69 41.13C35.12 41.13 35.53 40.96 35.83 40.66L40.39 36.09C41.02 35.46 41.02 34.44 40.39 33.81L38.31 31.73C39.07 30.4 39.66 28.99 40.06 27.51H42.97C43.86 27.51 44.58 26.79 44.58 25.9V19.44C44.58 18.55 43.86 17.83 42.97 17.83H40.06C39.65 16.35 39.07 14.94 38.31 13.61L40.37 11.56C41 10.93 41 9.91 40.37 9.28L35.81 4.71C35.51 4.41 35.1 4.24 34.67 4.24C34.24 4.24 33.83 4.41 33.53 4.71L31.47 6.77C30.14 6.01 28.73 5.42 27.25 5.02V2.11C27.25 1.22 26.53 0.5 25.64 0.5H19.19C18.3 0.5 17.58 1.22 17.58 2.11V5.05C16.11 5.45 14.69 6.04 13.36 6.8L11.3 4.74C10.67 4.11 9.65 4.11 9.02 4.74L4.46 9.31C3.83 9.94 3.83 10.96 4.46 11.59L6.52 13.64C5.76 14.97 5.17 16.38 4.77 17.86H1.86C0.97 17.86 0.25 18.58 0.25 19.47V25.93C0.25 26.82 0.97 27.54 1.86 27.54H4.77C5.18 29.02 5.76 30.43 6.52 31.76L4.46 33.81C3.83 34.44 3.83 35.46 4.46 36.09L9.02 40.66C9.32 40.96 9.73 41.13 10.16 41.13C10.59 41.13 11 40.96 11.3 40.66L13.36 38.6C14.69 39.35 16.1 39.94 17.58 40.35V43.26C17.58 44.15 18.3 44.87 19.19 44.87Z" stroke="white" stroke-width="8" mask="url(#path-1-inside-1_52_3)"/>
</svg>
